<?xml version="1.0" encoding="utf-8"?>
<!-- Generator: Adobe Illustrator 25.2.2, SVG Export Plug-In . SVG Version: 6.00 Build 0)  -->
<svg version="1.1" id="Calque_1" xmlns="http://www.w3.org/2000/svg" xmlns:xlink="http://www.w3.org/1999/xlink" x="0px" y="0px"
	 viewBox="0 0 268 172" style="enable-background:new 0 0 268 172;" xml:space="preserve">
<style type="text/css">
	.st0{fill:#FFFFFF;}
	.st1{fill-rule:evenodd;clip-rule:evenodd;fill:#000091;}
	.st2{fill:#E1000F;}
	.st3{fill:#808080;}
	.st4{fill:#C4C4C4;filter:url(#Adobe_OpacityMaskFilter);}
	.st5{mask:url(#mask0_1_);}
	.st6{fill-rule:evenodd;clip-rule:evenodd;fill:#FFFFFF;}
	.st7{fill:#C4C4C4;filter:url(#Adobe_OpacityMaskFilter_1_);}
	.st8{mask:url(#mask1_1_);}
</style>
<rect x="20" y="20" class="st0" width="55" height="20"/>
<path class="st1" d="M42.7,37.6c0.2-0.2,0.4-0.4,0.6-0.7c0.4-0.5,0.8-0.9,1.3-1.3c0.1-0.1,0.3-0.2,0.4-0.3c0,0,0,0,0-0.1
	c0,0,0-0.1,0-0.1c-0.1,0-0.2,0.1-0.2,0.2c-0.1,0.1-0.2,0.1-0.2,0.2c0,0-0.1,0,0-0.1l0.4-0.3c0,0,0,0,0,0c0,0,0,0,0-0.1
	c-0.5-0.1-0.9,0.3-1.2,0.6l0,0c-0.1,0-0.1,0-0.1,0c0,0,0,0,0,0c-0.3,0.1-0.6,0.3-0.8,0.5h0c-0.2,0.2-0.5,0.3-0.7,0.4v-0.1
	c-0.1,0-0.2,0.1-0.3,0.1c-0.1,0.1-0.3,0.1-0.4,0.1c-0.3,0.1-0.5,0-0.7,0h0h0l0,0h0h0l0,0c-0.1,0-0.2,0-0.2,0
	c-0.5,0.1-0.9,0.1-1.4,0.2l0,0l0,0l0,0c-0.2,0.1-0.5,0.2-0.7,0.3c0,0,0,0,0,0c0,0,0,0-0.1,0.1c-0.1,0.1-0.2,0.2-0.3,0.2
	c-0.2,0.1-0.3,0.2-0.4,0.3c-0.1,0.1-0.1,0.1-0.2,0.2c0,0,0,0-0.1,0c-0.1,0.1-0.1,0.1-0.2,0.2l0,0l0,0v0h0l0,0l0,0v0
	c-0.1,0.1-0.3,0.3-0.4,0.4c0,0-0.1,0-0.1,0c0,0,0,0,0,0c0-0.1,0.1-0.1,0.1-0.2c0-0.1,0.1-0.1,0.1-0.2c0.1-0.1,0.1-0.2,0.2-0.2
	c0,0,0,0,0,0c0,0,0,0-0.1,0c0.2-0.2,0.4-0.3,0.6-0.5c0,0-0.1,0,0,0c0,0,0,0,0-0.1c0,0,0,0,0,0c0,0,0,0,0,0c0,0,0,0,0,0l0,0
	c-0.1,0-0.1,0.1-0.2,0.1c0,0-0.1,0.1-0.1,0.1l0,0c-0.1,0.1-0.1,0.2-0.2,0.2c0,0,0,0-0.1,0c0,0,0,0,0,0l0,0l0,0l0,0l0,0l0,0l0,0l0,0
	c0,0,0,0,0,0l0,0l0,0l0,0c0,0,0,0,0-0.1l0,0l0,0l0,0l0,0l0,0l0,0l0,0h0l0,0l0,0c0,0,0,0,0,0c0,0,0,0,0,0c0.1-0.1,0.2-0.2,0.3-0.2h0
	c0.1-0.1,0.2-0.1,0.3-0.2l0,0l0,0c0,0,0.1-0.1,0.1-0.1c0,0,0,0,0,0l0,0c-0.2,0.1-0.4,0.2-0.6,0.3c0,0,0,0-0.1,0c0,0-0.1,0-0.1,0
	c0,0,0,0,0,0c0,0,0.1-0.1,0.1-0.1c0,0,0.1,0,0.1-0.1c0,0,0.1,0,0.1,0c0.8-0.6,1.7-0.7,2.6-0.9c0.6-0.1,1.1-0.2,1.7-0.4l0.3-0.2
	c0.1,0,0.2-0.1,0.3-0.2c0.1-0.1,0.2-0.1,0.3-0.2c0.3-0.2,0.5-0.5,0.6-0.9c0,0,0-0.1,0-0.1c-0.5,0.5-1,0.9-1.7,1.2
	c-0.6,0.3-1.2,0.3-1.8,0.4c-0.2,0-0.5,0-0.7,0.1c0-0.1,0.1-0.1,0.2-0.1c0-0.1,0-0.1,0.1-0.2c0,0,0,0,0,0h0.1c0,0,0,0,0,0
	c0,0,0,0,0,0c0.1,0,0.2,0,0.2,0c-0.1-0.1-0.1,0-0.2,0c-0.1,0-0.2,0.1-0.3,0c0,0,0-0.1,0.1-0.1c0,0,0-0.1,0.1-0.1h0.2
	c0-0.1,0-0.1,0.1-0.2c0.3-0.2,0.7-0.4,1-0.5c0.2-0.1,0.4-0.2,0.6-0.4c0,0-0.1,0-0.1,0c-0.1,0-0.1,0.1-0.2,0c0,0,0,0,0-0.1
	c0,0,0-0.1,0-0.1c0.2-0.1,0.5-0.2,0.7-0.3c0.2-0.1,0.3-0.2,0.5-0.2c-0.1,0-0.1,0-0.1,0c-0.1,0-0.2,0-0.3,0c0,0,0,0,0.1,0
	c0,0,0.1-0.1,0.2-0.1v-0.1c0,0,0,0,0.1,0c0,0-0.1,0-0.1,0c0,0,0.1,0,0.1-0.1c0,0,0.1,0,0.1-0.1c0,0-0.1,0-0.1,0
	c0.1-0.2,0.3-0.2,0.5-0.2c0,0-0.1,0-0.1,0c0,0-0.1,0-0.1,0s0,0,0.1,0h-0.1c-0.1,0,0-0.1,0-0.1l0,0c0,0,0,0,0,0
	c0.2-0.2,0.2-0.4,0.3-0.6c0-0.1,0.1-0.2,0.1-0.3c0,0-0.1,0-0.1,0c-0.4,0.4-0.9,0.6-1.5,0.7l0,0h-0.2c-0.2,0.1-0.4,0.1-0.6,0
	c-0.1,0-0.2-0.1-0.2-0.2c0,0-0.1-0.1-0.2-0.1c-0.3-0.2-0.6-0.3-0.9-0.5c-0.9-0.3-1.9-0.4-2.9-0.4c0.3-0.1,0.6-0.2,0.9-0.3
	c0.2,0,0.3-0.1,0.5-0.1c0.1,0,0.2-0.1,0.3-0.1c0.5-0.2,1.1-0.3,1.6-0.3c-0.1,0-0.2,0-0.3,0c0,0-0.1,0-0.1,0c-0.4,0-0.9,0.1-1.3,0.2
	c-0.1,0-0.2,0-0.3,0.1c-0.2,0-0.4,0.1-0.5,0.2c-0.2,0.1-0.4,0.1-0.5,0.2c-0.1,0-0.2,0.1-0.2,0.1c-0.1,0.1-0.2,0.2-0.4,0.1V31
	c0.4-0.5,0.8-0.9,1.4-0.9c0.6-0.1,1.1,0,1.7,0h0c0.1,0,0.2,0,0.3,0c0.5,0.1,1,0.1,1.4,0.3c0.1,0,0.2,0.1,0.2,0.2
	c0,0.1,0.1,0.1,0.2,0.2c0.1,0,0.2,0,0.3,0c0.1,0,0.3,0,0.4,0.1c0,0,0-0.1,0-0.1c0-0.1,0-0.1,0-0.2c0.1-0.1,0.2-0.1,0.3,0
	c0.1,0,0.1,0,0.2,0c0.2-0.1,0-0.3-0.2-0.5c-0.1-0.1-0.2-0.2-0.2-0.3c0,0,0-0.1,0-0.1c0.1,0.1,0.2,0.2,0.3,0.2
	c0.2,0.2,0.4,0.4,0.6,0.5c0.2,0.1,0.6,0.2,0.6,0c-0.1-0.3-0.4-0.5-0.6-0.8c-0.1-0.1-0.2-0.2-0.3-0.3v-0.2c-0.1,0-0.1,0-0.1,0
	c0,0,0,0,0,0V29c-0.1,0-0.1-0.1-0.1-0.2c0,0,0-0.1-0.1-0.1c-0.1-0.1-0.1-0.2-0.1-0.4c0-0.1,0-0.2,0-0.3c-0.1-0.2-0.1-0.4-0.2-0.6
	c0-0.3-0.1-0.5-0.1-0.7h0v0l0,0l0,0c-0.1-0.4-0.1-0.7-0.2-1.1c-0.1-0.6,0.2-1,0.5-1.5c0.1-0.1,0.2-0.3,0.2-0.4
	c0.3-0.5,0.6-0.9,1.1-1.2c0.1-0.5,0.4-0.8,0.7-1.2l0,0c0.3-0.4,0.8-0.6,1.2-0.8c0.3-0.1,0.7-0.3,1-0.4H20v20h18.4
	c0.5-0.4,1-0.6,1.6-0.9c0.3-0.1,0.5-0.2,0.8-0.4c0.1,0,0.1-0.1,0.2-0.1l0,0l0,0l0,0C41.5,38.4,42.4,38,42.7,37.6z M36.7,34.9
	c0-0.1,0.2-0.2,0.3-0.2c0.1,0,0.1,0,0.2-0.1l0,0l0,0l0,0c0.1,0,0.2-0.1,0.2-0.1c0,0.1,0.1,0.1,0.2,0.1c0,0,0.1,0,0.1,0.1
	c-0.1,0.1-0.3,0.1-0.5,0.2c-0.1,0-0.2,0-0.3,0.1c0,0,0,0-0.1,0C36.8,34.9,36.7,35,36.7,34.9z M32.3,32.1c-0.3,0.7-0.7,1.3-1.2,1.9
	c0,0,0,0.1,0,0.1c0.9-1,1.7-1.9,2.9-2.6c0,0,0,0,0,0c0,0-0.1,0.1,0,0.1c0.4-0.1,0.6-0.4,0.7-0.7c0-0.1,0.1-0.2,0.1-0.2
	c0.2-0.3,0.4-0.5,0.7-0.7c0.2-0.1,0.4-0.3,0.5-0.4c0,0,0,0.1,0,0.1c0,0,0.1,0,0.1,0c0.1,0,0.1-0.1,0.2-0.1c0.1,0,0.2-0.1,0.2-0.1
	c-0.3-0.1-0.7-0.1-1,0c-0.8,0.4-1.5,1-2.1,1.7C33.2,31.4,32.8,31.8,32.3,32.1z M34.2,31.8c0,0.1-0.1,0.1-0.2,0.2c0,0-0.1,0-0.1,0
	c0-0.2,0.1-0.3,0.3-0.3c0,0,0,0,0,0.1C34.3,31.6,34.2,31.7,34.2,31.8C34.2,31.7,34.2,31.7,34.2,31.8z M36,37.4
	C36,37.4,36,37.4,36,37.4c0-0.1,0-0.1,0-0.2c0-0.1-0.2-0.1-0.2,0c0,0-0.1,0.1-0.1,0.1c0,0.1-0.1,0.1-0.2,0.2c0,0-0.1,0.1-0.1,0.1
	c-0.1,0.1-0.1,0.1-0.2,0.1c-0.1,0.1,0.1,0.1,0.2,0c0,0,0.1-0.1,0.1-0.1c0,0,0,0,0.1,0C35.8,37.6,35.9,37.5,36,37.4z M35.3,37
	L35.3,37c-0.2,0.1-0.3,0.2-0.4,0.3c-0.1,0.1-0.2,0.1-0.4,0.2c0,0-0.1,0-0.1,0.1c0,0,0,0,0,0c0,0,0,0-0.1,0c-0.1,0.1-0.3,0.2-0.4,0.3
	c0,0,0,0-0.1,0.1c0,0,0,0-0.1,0.1l0,0c0,0,0,0,0,0l0,0c0,0-0.1,0.1-0.1,0.1c0,0,0,0-0.1,0.1c0,0-0.1,0-0.1,0v0l0,0c0,0,0,0-0.1,0
	c0,0,0,0-0.1,0l0,0c0,0,0,0,0,0c0,0,0,0,0,0c0,0-0.1,0.1-0.1,0.1c-0.1,0.1-0.2,0.1-0.2,0.2l0,0l0,0c0,0,0,0,0,0l0,0l0,0l0,0l0,0
	c0,0,0,0,0,0l0,0c0,0,0,0,0,0l0,0l0,0c0,0,0,0,0-0.1l0,0l0,0l0,0c0,0,0.1-0.1,0.1-0.1l0,0c0,0,0,0,0,0l0.1-0.1c0,0,0,0,0,0l0,0
	c0-0.1,0.1-0.1,0.1-0.2l0,0l0,0c0,0,0,0,0,0c0,0,0-0.1,0.1-0.1c0,0,0,0,0-0.1l0,0l0,0c0,0,0,0,0,0c0,0,0,0,0,0c0,0,0-0.1,0-0.1l0,0
	l0,0c0,0,0,0,0,0c0,0,0,0,0,0c0,0,0,0,0,0l0,0v0c0,0,0,0,0,0c0,0,0,0,0,0c0-0.1,0.1-0.1,0.1-0.2c0,0,0,0,0,0l0,0c0,0,0,0,0,0
	c0,0-0.1,0-0.1,0.1c0,0,0,0-0.1,0.1c0,0-0.1,0-0.1-0.1c0,0,0.1-0.1,0.1-0.1c0.1-0.1,0.1-0.1,0.2-0.2l0,0c0,0,0.1-0.1,0.1-0.1
	c0,0,0,0,0,0l0,0c0,0,0.1-0.1,0.1-0.1l0,0c0,0,0,0,0,0c0.2-0.2,0.5-0.3,0.9-0.4c0.2-0.1,0.4-0.1,0.6-0.2c0.1,0,0.2,0,0.3,0
	c0.1,0,0.2,0,0.3,0c0.1,0,0.2,0,0.3,0.1c-0.3,0.1-0.5,0.3-0.8,0.5C35.5,36.9,35.4,36.9,35.3,37L35.3,37z M36,34.3h0.3
	c0,0-0.1,0-0.1,0.1c0,0,0,0,0,0c0.1,0.1,0.3,0.1,0.5,0c0.1-0.1,0.2-0.1,0.4-0.1c0,0,0-0.1,0-0.1c0.1,0,0.2,0,0.3,0
	c0.9-0.2,1.8-0.4,2.6-0.8c-0.8-0.6-1.9-0.9-2.9-1.2l0,0l0,0c-0.2,0-0.3-0.1-0.5-0.1c0,0,0.1,0,0.1,0c0.1,0,0.2,0.1,0.2,0
	c-0.1-0.1-0.2-0.1-0.3-0.1c-0.1,0-0.2,0-0.3-0.1c0,0,0,0,0,0c0,0,0.1,0,0.1,0c-0.2-0.1-0.4-0.1-0.6-0.2l0,0c-0.1,0-0.2,0-0.3-0.1
	c0.2,0,0.3-0.2,0.3-0.4c0,0-0.1,0-0.1,0c-0.5,0.2-0.8,0.6-0.9,1.1c0.2,0.1,0.4,0.1,0.5,0.1c0.1,0,0.2,0,0.3,0
	c-0.1,0.1-0.2,0.1-0.3,0.1c0,0-0.1,0-0.1,0c-0.1,0-0.2,0.1-0.2,0.2c0,0,0.1,0,0.1,0.1c-0.1,0-0.2,0.1-0.2,0.1
	c0.1,0.1,0.2,0.1,0.3,0.1c0,0,0.1,0,0.1,0c0,0.1,0,0.1,0.1,0.1l0,0c0,0,0,0,0,0c-0.2,0.1-0.3,0.2-0.4,0.3c0,0.1-0.1,0.2-0.2,0.3l0,0
	c-0.1,0-0.1,0.1-0.2,0.2v0.1c-0.1,0.1-0.3,0.2-0.4,0.3l0,0c-0.3,0.2-0.5,0.4-0.7,0.7c0,0,0,0,0,0.1c0,0.1-0.1,0.1-0.1,0.1
	c-0.1,0-0.1,0.1-0.1,0.1c0,0,0,0.1,0,0.1c0.2-0.1,0.4-0.2,0.6-0.3c0.2-0.1,0.4-0.2,0.6-0.3c0.2,0,0.3-0.1,0.4-0.2
	c0.1-0.1,0.2-0.1,0.4-0.2c0.1,0,0.2,0,0.3-0.1l0,0l0,0C35.7,34.2,35.8,34.2,36,34.3C35.9,34.2,35.9,34.3,36,34.3z M37.7,37.6
	C37.7,37.6,37.7,37.6,37.7,37.6L37.7,37.6c0.1-0.1,0.1-0.1,0.2-0.2c0,0,0,0,0,0c0,0,0,0,0,0C37.8,37.5,37.8,37.5,37.7,37.6z
	 M45.1,35.1L45.1,35.1C45.1,35.2,45.1,35.2,45.1,35.1z"/>
<path class="st2" d="M75,20H53.5c0.1,0,0.1,0.1,0.2,0.1c0.2,0.1,0.4,0.2,0.5,0.3c0.3,0.1,0.5,0.3,0.7,0.6c0.1,0.1,0.2,0.3,0.1,0.5
	C55,21.7,55,22,54.8,22c-0.2,0.1-0.5,0.1-0.8,0.1c-0.2,0-0.3,0-0.5-0.1c0.6,0.2,1.1,0.5,1.5,1c0,0.1,0.2,0.1,0.3,0.1
	c0,0,0,0.1,0,0.1c-0.1,0.1-0.2,0.1-0.1,0.2h0.1c0.2-0.1,0.2-0.5,0.4-0.3c0.2,0.1,0.3,0.4,0.2,0.6c-0.1,0.1-0.3,0.3-0.5,0.4
	c0,0.1,0,0.2,0,0.3c0.1,0.1,0.2,0.3,0.2,0.5c0.1,0.3,0.2,0.6,0.3,0.8c0.2,0.6,0.3,1.1,0.3,1.7c0,0.3-0.2,0.6,0,0.9
	c0.1,0.3,0.3,0.5,0.4,0.8c0.2,0.2,0.3,0.4,0.4,0.6c0.2,0.4,0.6,0.8,0.5,1.2c-0.1,0.3-0.5,0.2-0.8,0.4c-0.2,0.2,0,0.5,0.1,0.7
	c0.2,0.3-0.2,0.6-0.5,0.7c0.1,0.1,0.2,0.1,0.3,0.2c0,0.2,0.2,0.3,0.1,0.5c-0.2,0.2-0.6,0.3-0.4,0.7c0.2,0.3,0.1,0.6,0,0.8
	c-0.1,0.3-0.4,0.5-0.7,0.6c-0.2,0.1-0.5,0.1-0.7,0c-0.1,0-0.1-0.1-0.2-0.1c-0.6-0.1-1.3-0.3-1.9-0.3c-0.2,0-0.4,0.1-0.5,0.2
	c-0.2,0.1-0.3,0.3-0.5,0.4l0,0c0,0-0.1,0.1-0.1,0.1c0,0,0,0,0,0.1c0,0,0,0,0,0c-0.1,0.1-0.2,0.3-0.3,0.4c0,0,0,0,0,0c0,0,0,0,0,0.1
	c-0.1,0.2-0.2,0.5-0.3,0.7c-0.3,0.9-0.1,1.6,0,1.8c0.1,0.1,1.2,0.4,2.1,0.8c0.3,0.1,0.6,0.3,0.9,0.5H75V20z"/>
<path class="st3" d="M54.8,27.3c0.2,0,0.4,0,0.4,0.1c-0.1,0.3-0.5,0.4-0.8,0.7h-0.1c-0.1,0.1-0.1,0.3-0.2,0.3c-0.1,0-0.2,0-0.3,0
	c0.2,0.2,0.3,0.3,0.6,0.2c0.1,0,0.1,0.1,0.1,0.2c0,0,0.1,0,0.1,0c0,0,0.1,0,0.1,0v0.2c-0.1,0.2-0.3,0.1-0.5,0.1
	c0.3,0.1,0.6,0.1,0.9,0c0.2-0.1,0-0.5,0.2-0.6c-0.1,0,0-0.1-0.1-0.1c0.1-0.1,0.2-0.2,0.2-0.2c0.1,0,0.2,0,0.2-0.1
	c0-0.1-0.2-0.1-0.1-0.2c0.2-0.2,0.4-0.4,0.3-0.6c0-0.1-0.3-0.1-0.5-0.2c-0.2-0.1-0.4,0-0.6,0c-0.2,0-0.4,0.1-0.6,0.2
	c-0.3,0.1-0.5,0.2-0.7,0.4c0.3-0.1,0.5-0.2,0.8-0.2C54.3,27.3,54.5,27.2,54.8,27.3z"/>
<defs>
	<filter id="Adobe_OpacityMaskFilter" filterUnits="userSpaceOnUse">
		<feColorMatrix  type="matrix" values="1 0 0 0 0  0 1 0 0 0  0 0 1 0 0  0 0 0 1 0"/>
	</filter>
</defs>
<mask maskUnits="userSpaceOnUse" id="mask0_1_">
	<rect x="18" y="20" class="st4" width="57" height="20"/>
</mask>
<g class="st5">
</g>
<path class="st0" d="M20.1,65h2.8v-5.7h1.5l3.7,5.7h3.3l-4.4-6.2c1.4-0.7,2.3-1.9,2.3-3.6c0-2.6-1.9-4.2-5-4.2h-4.3V65z M24.5,53.4
	c1.2,0,1.9,0.7,1.9,1.8c0,1.1-0.7,1.8-1.9,1.8h-1.6v-3.6H24.5z M38.9,49.8l2.6-2.7h-2.9l-2.3,2.7H38.9z M33.5,65h8.2v-2.4h-5.3V59
	h4.5v-2.4h-4.5v-3.3h5.3V51h-8.2V65z M51.4,62.7c-2.7,0-4.7-2.1-4.7-4.7s1.9-4.7,4.5-4.7c1.6,0,2.9,0.8,3.7,1.9l2.2-1.7
	c-1.3-1.7-3.4-2.8-5.9-2.8c-4.4,0-7.4,3.4-7.4,7.4s3.1,7.4,7.6,7.4c2.6,0,4.8-1.1,6.1-2.9v-5.9h-6.4v2.4h3.6v2.4
	C53.9,62.3,52.7,62.7,51.4,62.7z M61,65h2.8V51H61V65z M74.3,50.6c-4.4,0-7.4,3.4-7.4,7.4s3,7.4,7.4,7.4c4.4,0,7.4-3.4,7.4-7.4
	S78.7,50.6,74.3,50.6z M74.3,62.7c-2.6,0-4.5-2.1-4.5-4.7s1.9-4.7,4.5-4.7c2.6,0,4.5,2.1,4.5,4.7S76.9,62.7,74.3,62.7z M84.7,65h2.8
	V54.9L93.8,65h3.6V51h-2.8v10.1L88.4,51h-3.6V65z M105.4,65h3l1.3-3.6h5.6l1.3,3.6h3l-5.3-14h-3.7L105.4,65z M110.6,58.9l1.9-5.3
	l1.9,5.3H110.6z M128.1,62.7c-2.6,0-4.5-2.1-4.5-4.7s1.9-4.7,4.5-4.7c1.6,0,2.9,0.8,3.7,1.9l2.2-1.7c-1.3-1.7-3.4-2.8-5.9-2.8
	c-4.4,0-7.4,3.4-7.4,7.4s3,7.4,7.4,7.4c2.5,0,4.6-1.1,5.9-2.9l-2.2-1.7C131,62,129.7,62.7,128.1,62.7z M134.9,65h3l1.3-3.6h5.6
	l1.3,3.6h3l-5.3-14h-3.7L134.9,65z M140.2,58.9l1.9-5.3l1.9,5.3H140.2z M151.7,65h5.5c4.4,0,7.4-3.2,7.4-7s-3-7-7.4-7h-5.5V65z
	 M157.2,53.6c2.6,0,4.5,1.9,4.5,4.4c0,2.5-1.9,4.4-4.5,4.4h-2.7v-8.8H157.2z M173,49.8l2.6-2.7h-2.9l-2.3,2.7H173z M167.7,65h8.2
	v-2.4h-5.3V59h4.5v-2.4h-4.5v-3.3h5.3V51h-8.2V65z M179.4,65h2.8V55l3.1,5.2h2l3.1-5.2v10h2.8V51h-3.5l-3.4,5.9L183,51h-3.5V65z
	 M197.6,65h2.8V51h-2.8V65z M216.4,64.6l-0.8-0.8c1.7-1.4,2.8-3.5,2.8-5.8c0-4-3-7.4-7.4-7.4c-4.4,0-7.4,3.4-7.4,7.4s3,7.4,7.4,7.4
	c0.7,0,1.3-0.1,1.9-0.2l1.7,1.5c1.4,1.2,2.8,1.8,4.4,1.8c0.6,0,1-0.1,1.5-0.3v-2.4c-0.3,0.1-0.7,0.2-1,0.2
	C218.4,66,217.4,65.6,216.4,64.6z M210.9,62.7c-2.6,0-4.5-2.1-4.5-4.7s1.9-4.7,4.5-4.7c2.6,0,4.5,2.1,4.5,4.7S213.5,62.7,210.9,62.7
	z M229.6,59.8c0,1.9-1.1,3-2.8,3c-1.8,0-2.8-1.1-2.8-3V51h-2.8v8.5c0,3.7,2.2,5.9,5.7,5.9c3.5,0,5.7-2.2,5.7-5.9V51h-2.8V59.8z
	 M236.2,65h8.2v-2.4h-5.3V59h4.5v-2.4h-4.5v-3.3h5.3V51h-8.2V65z M20.1,86h2.8v-5.7h1.8c3.1,0,5-1.6,5-4.2c0-2.6-1.9-4.2-5-4.2h-4.6
	V86z M24.8,74.4c1.2,0,1.9,0.7,1.9,1.8c0,1.1-0.7,1.8-1.9,1.8h-1.9v-3.6H24.8z M32.3,86h2.8v-5.7h1.5l3.7,5.7h3.3l-4.4-6.2
	c1.4-0.7,2.3-1.9,2.3-3.6c0-2.6-1.9-4.2-5-4.2h-4.3V86z M36.7,74.4c1.2,0,1.9,0.7,1.9,1.8c0,1.1-0.7,1.8-1.9,1.8h-1.6v-3.6H36.7z
	 M51.8,71.6c-4.4,0-7.4,3.4-7.4,7.4s3,7.4,7.4,7.4c4.4,0,7.4-3.4,7.4-7.4S56.2,71.6,51.8,71.6z M51.8,83.7c-2.6,0-4.5-2.1-4.5-4.7
	s1.9-4.7,4.5-4.7c2.6,0,4.5,2.1,4.5,4.7S54.4,83.7,51.8,83.7z M60.2,72l5.3,14h3.7l5.3-14h-3l-4.1,10.9L63.2,72H60.2z M76.9,86h8.2
	v-2.4h-5.3V80h4.5v-2.4h-4.5v-3.3h5.3V72h-8.2V86z M88.7,86h2.8V75.9L97.8,86h3.6V72h-2.8v10.1L92.3,72h-3.6V86z M111.9,83.7
	c-2.6,0-4.5-2.1-4.5-4.7s1.9-4.7,4.5-4.7c1.6,0,2.9,0.8,3.7,1.9l2.2-1.7c-1.3-1.7-3.4-2.8-5.9-2.8c-4.4,0-7.4,3.4-7.4,7.4
	s3,7.4,7.4,7.4c2.5,0,4.6-1.1,5.9-2.9l-2.2-1.7C114.8,83,113.5,83.7,111.9,83.7z M120.6,86h8.2v-2.4h-5.3V80h4.5v-2.4h-4.5v-3.3h5.3
	V72h-8.2V86z M130.7,79.7v2.5h5.4v-2.5H130.7z M136.8,86h3l1.3-3.6h5.6l1.3,3.6h3l-5.3-14h-3.7L136.8,86z M142,79.9l1.9-5.3l1.9,5.3
	H142z M153.5,86h8.2v-2.6h-5.3V72h-2.8V86z M164.5,86h2.8v-5.7h1.8c3.1,0,5-1.6,5-4.2c0-2.6-1.9-4.2-5-4.2h-4.6V86z M169.2,74.4
	c1.2,0,1.9,0.7,1.9,1.8c0,1.1-0.7,1.8-1.9,1.8h-1.9v-3.6H169.2z M176.7,86h8.2v-2.4h-5.3V80h4.5v-2.4h-4.5v-3.3h5.3V72h-8.2V86z
	 M187.2,84.1c1.2,1.5,2.8,2.3,5.2,2.3c2.6,0,4.6-1.6,4.7-4.2c0-4.8-6.4-4.1-6.4-6.6c0-0.8,0.7-1.5,1.7-1.5c1.1,0,2,0.7,2.8,1.8
	l2.1-1.9c-1.2-1.4-2.8-2.4-4.9-2.4c-2.7,0-4.5,1.8-4.5,4.1c0,4.7,6.4,4,6.4,6.6c0,1-0.7,1.6-1.8,1.6c-1.1,0-2.3-0.6-3.1-1.7
	L187.2,84.1z M198.7,79.7v2.5h5.4v-2.5H198.7z M26.3,104.7c-2.6,0-4.5-2.1-4.5-4.7s1.9-4.7,4.5-4.7c1.6,0,2.9,0.8,3.7,1.9l2.2-1.7
	c-1.3-1.7-3.4-2.8-5.9-2.8c-4.4,0-7.4,3.4-7.4,7.4s3,7.4,7.4,7.4c2.5,0,4.6-1.1,5.9-2.9l-2.2-1.7C29.2,104,27.9,104.7,26.3,104.7z
	 M39.6,91.8l1.5-1.5l1.5,1.5h2.2l-2.2-2.7h-2.9l-2.3,2.7H39.6z M41.1,92.6c-4.4,0-7.4,3.4-7.4,7.4s3,7.4,7.4,7.4
	c4.4,0,7.4-3.4,7.4-7.4S45.5,92.6,41.1,92.6z M41.1,104.7c-2.6,0-4.5-2.1-4.5-4.7s1.9-4.7,4.5-4.7c2.6,0,4.5,2.1,4.5,4.7
	S43.7,104.7,41.1,104.7z M49.5,95.6h4.3V107h2.8V95.6h4.3V93H49.5V95.6z M63.7,107h8.2v-2.4h-5.3V101h4.5v-2.4h-4.5v-3.3h5.3V93
	h-8.2V107z M81,107h5.5c4.4,0,7.4-3.2,7.4-7s-3-7-7.4-7H81V107z M86.5,95.6c2.6,0,4.5,1.9,4.5,4.4c0,2.5-1.9,4.4-4.5,4.4h-2.7v-8.8
	H86.5z M98.2,98.8l0.3-5.8h-2.8l0.3,5.8H98.2z M98.9,107h3l1.3-3.6h5.6l1.3,3.6h3l-5.3-14h-3.7L98.9,107z M104.1,100.9l1.9-5.3
	l1.9,5.3H104.1z M114.8,107h11.5v-2.6h-8l7.8-8.8V93H115v2.6h7.6l-7.8,8.8V107z M137.7,101.8c0,1.9-1.1,3-2.8,3
	c-1.8,0-2.8-1.1-2.8-3V93h-2.8v8.5c0,3.7,2.2,5.9,5.7,5.9c3.5,0,5.7-2.2,5.7-5.9V93h-2.8V101.8z M144.4,107h2.8v-5.7h1.5l3.7,5.7
	h3.3l-4.4-6.2c1.4-0.7,2.3-1.9,2.3-3.6c0-2.6-1.9-4.2-5-4.2h-4.3V107z M148.8,95.4c1.2,0,1.9,0.7,1.9,1.8c0,1.1-0.7,1.8-1.9,1.8
	h-1.6v-3.6H148.8z"/>
<path class="st6" d="M72,142.7l-1.9,1.7h-0.5l1.1-1.9H72V142.7z M70.6,149.3h-0.4c-0.5,0.6-1.1,1.1-1.6,1.1c-0.6,0-0.8-0.3-0.8-1.1
	c0-0.3,0-0.6,0.1-0.9l3.3-1.1c0.6-1.5-0.1-2.2-1-2.2c-1.5,0-3.3,2.7-3.3,4.9c0,1,0.5,1.6,1.2,1.6C68.9,151.5,69.9,150.7,70.6,149.3z
	 M69.5,146c0.4,0,0.8,0.3,0.6,1.1l-2,0.5C68.4,146.7,69,146,69.5,146z M63.1,146h1.1l-1.7,4.7c-0.2,0.4,0.1,0.8,0.5,0.8
	c1.2,0,2.7-1,3.2-2.5h-0.3c-0.4,0.6-1.4,1.3-2.1,1.4l1.6-4.4H67l0.2-0.7h-1.6l0.6-1.7h-0.6l-1.1,1.7l-1.3,0.2V146z M61.6,145.1
	c0.2,0,0.5,0.2,0.4,0.7l-1.9,4.7c0.5-0.1,1-0.6,1.3-1h0.3c-0.5,1.2-1.5,2-2.4,2c-0.2,0-0.5-0.2-0.4-0.7l1.8-4.7
	c-0.5,0.1-1,0.6-1.3,1h-0.3C59.6,146,60.7,145.1,61.6,145.1z M62.2,143.9c0.4,0,0.7-0.3,0.7-0.7c0-0.4-0.3-0.7-0.7-0.7
	c-0.4,0-0.7,0.3-0.7,0.7C61.5,143.6,61.8,143.9,62.2,143.9z M53.5,147.8c0.4-1,0.3-1.4,0-1.4c-0.2,0-0.5,0.3-0.8,0.7h-0.3
	c0.5-1,1.1-2,1.7-2c0.6,0,0.8,0.6,0.8,1.2v0.9c0.1-0.1,0.2-0.2,0.3-0.3h0c0.8-1,1.5-1.7,2.2-1.7c0.6,0,0.9,0.4,0.9,0.9
	c0,0.3-0.1,0.7-0.3,1.1l-1.7,3.3c0.5-0.1,1-0.6,1.3-1h0.3c-0.5,1.2-1.6,2-2.5,2c-0.4,0-0.7-0.4-0.5-0.8l1.9-3.7
	c0.2-0.4,0.3-0.7-0.1-0.7c-0.5,0-1.5,0.8-2.1,1.5l-1.3,3.3c-0.1,0.3-0.3,0.4-0.6,0.4c-0.5,0-0.8-0.3-0.5-0.9L53.5,147.8z
	 M52.2,146.6c0.2-0.8,0.1-1.4-0.5-1.4c-0.7,0-0.9,0.5-1.7,2l0,0.1v-0.9c0-0.6-0.2-1.2-0.8-1.2c-0.7,0-1.3,1-1.7,2h0.3
	c0.3-0.5,0.6-0.7,0.9-0.7c0.3,0,0.4,0.4,0,1.4l-1.3,2.8c-0.2,0.5,0,0.9,0.5,0.9c0.3,0,0.5-0.1,0.6-0.4l1.3-3.3
	c0.4-0.4,0.7-0.8,1.1-1.2H52.2z M45.8,147.1c0.2-0.8-0.2-1.1-0.6-1.1c-0.5,0-1.1,0.7-1.4,1.7L45.8,147.1z M46.3,149.3h-0.4
	c-0.5,0.6-1.1,1.1-1.6,1.1c-0.6,0-0.8-0.3-0.8-1.1c0-0.3,0-0.6,0.1-0.9l3.3-1.1c0.6-1.5-0.1-2.2-1-2.2c-1.5,0-3.3,2.7-3.3,4.9
	c0,1,0.5,1.6,1.2,1.6C44.7,151.5,45.6,150.7,46.3,149.3z M39.9,146h-1.1v-0.5l1.3-0.2l1.1-1.7h0.6l-0.6,1.7h1.6l-0.2,0.7h-1.6
	l-1.6,4.4c0.7-0.1,1.7-0.8,2.1-1.4h0.3c-0.6,1.5-2,2.5-3.2,2.5c-0.4,0-0.6-0.4-0.5-0.8L39.9,146z M33.1,149.7c0-1.5,1.6-3.4,2.5-3.4
	c0.2,0,0.4,0,0.6,0.1l-0.9,2.5c-0.5,0.7-1.4,1.5-1.8,1.5C33.3,150.3,33.1,150.1,33.1,149.7z M37.6,144.8l0.5,0l-1.7,4
	c-0.4,1-0.2,1.4,0,1.4c0.2,0,0.5-0.3,0.9-0.7h0.3c-0.5,1-1.1,2-1.7,2c-0.6,0-0.9-0.6-0.8-1.7l0-0.4l-0.1,0.2c-0.7,1-1.4,1.9-2,1.9
	c-0.6,0-0.9-0.4-0.9-0.9c0-2.3,2.5-5.3,4.9-5.3H37L37.6,144.8z M33,146.6c0.2-0.8,0.1-1.4-0.5-1.4c-0.7,0-0.9,0.5-1.7,2l0,0.1v-0.9
	c0-0.6-0.2-1.2-0.8-1.2c-0.7,0-1.3,1-1.7,2h0.3c0.3-0.5,0.6-0.7,0.8-0.7c0.3,0,0.4,0.4,0,1.4l-1.3,2.9c-0.2,0.5,0,0.9,0.5,0.9
	c0.3,0,0.5-0.1,0.6-0.4l1.3-3.3c0.4-0.4,0.7-0.8,1.1-1.2L33,146.6L33,146.6z M24.8,151l-0.1,0.4H20l0.1-0.4c1.4-0.3,1.7-0.4,2.3-2
	l1.3-3.5c0.6-1.6,0.5-1.7-0.8-2l0.1-0.4h6.1l-0.4,1.9h-0.4c0-1.2-0.1-1.5-1.2-1.5h-0.3c-1.1,0-1.2,0.2-1.5,1l-0.9,2.3h1.3
	c0.8,0,1.2-0.5,1.5-1.2h0.4l-1,2.8h-0.4c0.1-0.9,0.1-1.2-0.7-1.2h-1.3l-0.6,1.6C23,150.6,23.2,150.7,24.8,151
	C24.7,150.9,24.7,151,24.8,151z"/>
<path class="st6" d="M28.7,127.4l-1.9,1.3v0h-0.5l1.1-1.6h1.2V127.4z M41.7,136.8l3-7.9l-0.1-0.1l-2.1,0.2v0.2l0.4,0.3
	c0.3,0.3,0.3,0.5,0,1.3l0,0.1l-2.3,6.1c-0.2,0.4,0.1,0.8,0.5,0.8c0.9,0,1.9-0.9,2.4-2h-0.3C42.9,136.2,42.2,136.7,41.7,136.8z
	 M55.4,130.7l1.9-1.7v-0.2H56l-1.1,1.9H55.4z M55.5,135.5h0.4c-0.7,1.4-1.7,2.3-2.5,2.3c-0.8,0-1.2-0.6-1.2-1.6
	c0-2.2,1.8-4.9,3.3-4.9c0.9,0,1.7,0.7,1,2.2l-3.3,1.1c-0.1,0.3-0.1,0.6-0.1,0.9c0,0.7,0.3,1.1,0.8,1.1
	C54.5,136.6,55,136.1,55.5,135.5z M55.4,133.4c0.2-0.8-0.2-1.1-0.6-1.1c-0.5,0-1.1,0.7-1.4,1.6L55.4,133.4z M49.5,132.3h-1.1v-0.5
	l1.3-0.2l1.1-1.7h0.6l-0.6,1.7h1.6l-0.2,0.7h-1.6l-1.6,4.4c0.7-0.1,1.7-0.8,2.1-1.4h0.3c-0.6,1.5-2,2.5-3.2,2.5
	c-0.4,0-0.6-0.4-0.5-0.8L49.5,132.3z M47.3,132.1c0.1-0.4-0.2-0.7-0.4-0.7c-0.9,0-2.1,0.9-2.5,2h0.3c0.3-0.4,0.8-0.9,1.3-1l-1.8,4.7
	c-0.2,0.4,0.2,0.7,0.4,0.7c0.9,0,1.9-0.9,2.4-2h-0.3c-0.3,0.4-0.8,0.9-1.3,1L47.3,132.1z M48.3,129.5c0,0.4-0.3,0.7-0.7,0.7
	c-0.4,0-0.7-0.3-0.7-0.7c0-0.4,0.3-0.7,0.7-0.7C47.9,128.7,48.3,129.1,48.3,129.5z M38.2,132.6c-0.9,0-2.5,2-2.5,3.4
	c0,0.4,0.1,0.6,0.4,0.6c0.4,0,1.2-0.8,1.8-1.5l0.9-2.5C38.5,132.6,38.4,132.6,38.2,132.6z M40.6,131.1l-0.5,0l-0.6,0.6h-0.1
	c-2.4,0-4.9,3-4.9,5.3c0,0.5,0.3,0.9,0.9,0.9c0.7,0,1.3-0.9,2-1.9l0.1-0.2l0,0.4c-0.1,1.1,0.2,1.7,0.8,1.7c0.7,0,1.3-1,1.7-2h-0.3
	c-0.3,0.5-0.6,0.7-0.9,0.7c-0.2,0-0.4-0.4,0-1.4L40.6,131.1z M30.5,137.6c-0.9,0.3-1.5,0.7-1.5,1.4c0,0.6,0.5,0.8,1.7,0.8
	c1.5,0,2.3-0.4,2.3-1c0-0.3-0.3-0.4-1.2-0.7C31.2,137.9,30.8,137.8,30.5,137.6z M31.5,135.2c-0.4,0-0.5-0.3-0.5-0.7
	c0-1.2,0.6-2.6,1.5-2.6c0.4,0,0.5,0.3,0.5,0.7C33,133.7,32.4,135.2,31.5,135.2z M32.3,137c1.1,0.3,1.8,0.6,1.8,1.4
	c0,1-1.8,2.1-4,2.1c-1.3,0-2.3-0.3-2.3-1.2c0-0.8,0.7-1.4,2.5-1.9c-0.2-0.2-0.3-0.4-0.3-0.6c0-0.5,0.4-0.9,1.2-1.2
	c-0.7-0.1-1.2-0.7-1.2-1.5c0-1.3,1-2.7,2.7-2.7c0.3,0,0.6,0.1,0.9,0.2h1.8l-0.2,0.7H34c0.1,0.2,0.1,0.4,0.1,0.6c0,1.2-1,2.6-2.5,2.7
	c-0.4,0.2-0.6,0.5-0.6,0.8c0,0.3,0.3,0.4,1.1,0.6h0C32.1,137,32.2,137,32.3,137z M25.9,133.6c0.8,0,0.8,0.3,0.7,1.2h0.4l1-2.8h-0.4
	c-0.4,0.7-0.7,1.2-1.5,1.2h-1.7l0.8-2.3c0.3-0.8,0.4-1,1.5-1h0.8c1.1,0,1.2,0.3,1.2,1.5h0.4l0.4-1.9H23l-0.1,0.4
	c1.3,0.3,1.4,0.4,0.8,2l-1.3,3.5c-0.6,1.6-0.8,1.7-2.3,2l-0.1,0.4h7.2l1.3-2.1H28c-0.8,0.8-1.7,1.6-3.3,1.6c-1.8,0-1.8-0.1-1.2-1.6
	c0-0.1,0.1-0.2,0.1-0.3l0.6-1.6L25.9,133.6L25.9,133.6z"/>
<path class="st6" d="M31.9,116.5c0.4,0,0.7-0.3,0.7-0.7s-0.3-0.7-0.7-0.7c-0.4,0-0.7,0.3-0.7,0.7C31.2,116.2,31.5,116.5,31.9,116.5z
	 M33.7,124.1c1.6,0,4.2-2.9,4.2-5.1c0-1-0.2-1.3-0.9-1.3c-0.8,0-1.6,0.9-2.4,2l1.7-4.5l-0.1-0.1l-2.1,0.2v0.2l0.4,0.3
	c0.3,0.3,0.2,0.5,0,1.3l0,0.1l-1.8,4.8c-0.2,0.4-0.3,0.9-0.3,1C32.2,123.5,33,124.1,33.7,124.1z M55.2,117l1.9-1.7V115h-1.2
	l-1.1,1.9H55.2z M55.3,121.8h0.4c-0.8,1.4-1.7,2.3-2.6,2.3c-0.8,0-1.2-0.5-1.2-1.6c0-2.2,1.8-4.9,3.3-4.9c0.9,0,1.7,0.7,1,2.2
	l-3.3,1.1c-0.1,0.3-0.1,0.6-0.1,0.9c0,0.7,0.3,1.1,0.8,1.1C54.2,122.9,54.8,122.4,55.3,121.8z M55.2,119.7c0.2-0.8-0.2-1.1-0.6-1.1
	c-0.5,0-1.1,0.7-1.4,1.6L55.2,119.7z M49.3,118.6h-1.1v-0.5l1.3-0.2l1.1-1.7h0.6l-0.6,1.7h1.6l-0.2,0.7h-1.6l-1.6,4.4
	c0.7-0.1,1.7-0.8,2.1-1.4h0.3c-0.6,1.5-2,2.5-3.2,2.5c-0.4,0-0.6-0.4-0.5-0.8L49.3,118.6z M47.7,119.1c0.2-0.8,0.1-1.4-0.5-1.4
	c-0.7,0-0.9,0.5-1.7,2l0,0.1v-0.9c0-0.6-0.2-1.2-0.8-1.2c-0.7,0-1.3,1-1.7,2h0.3c0.3-0.5,0.6-0.7,0.8-0.7c0.3,0,0.4,0.4,0,1.4
	l-1.3,2.8c-0.2,0.5,0,0.9,0.5,0.9c0.3,0,0.5-0.1,0.6-0.4l1.3-3.3c0.4-0.4,0.7-0.8,1.1-1.2H47.7z M41.3,119.7
	c0.2-0.8-0.2-1.1-0.6-1.1c-0.5,0-1.1,0.7-1.4,1.6L41.3,119.7z M41.8,121.8h-0.4c-0.5,0.6-1.1,1.1-1.6,1.1c-0.6,0-0.8-0.3-0.8-1.1
	c0-0.3,0-0.6,0.1-0.9l3.3-1.1c0.6-1.5-0.1-2.2-1-2.2c-1.5,0-3.3,2.7-3.3,4.9c0,1,0.5,1.6,1.2,1.6C40.1,124.1,41.1,123.2,41.8,121.8z
	 M33.4,122.6c0,0.3,0.5,0.6,0.8,0.6c1.3,0,2.5-2.3,2.5-3.6c0-0.4-0.2-0.6-0.5-0.6c-0.5,0-1.4,0.7-1.9,1.4l-0.5,1.4
	C33.6,122.1,33.4,122.5,33.4,122.6z M31.3,117.7c0.2,0,0.5,0.2,0.4,0.7l-1.9,4.7c0.5-0.1,1-0.6,1.3-1h0.3c-0.5,1.2-1.5,2-2.4,2
	c-0.2,0-0.6-0.2-0.4-0.7l1.8-4.7c-0.5,0.1-1,0.6-1.3,1h-0.3C29.3,118.5,30.4,117.7,31.3,117.7z M23,115.6h4.3l-0.1,0.4
	c-1.5,0.3-1.7,0.4-2.3,2l-1.3,3.5c-0.6,1.7-0.5,1.9,0.6,1.9c1.4,0,2.3-1,3-1.8c0.1-0.1,0.1-0.1,0.2-0.2H28l-1.4,2.5H20l0.1-0.4
	c1.4-0.3,1.7-0.4,2.3-2l1.3-3.5c0.6-1.6,0.5-1.7-0.8-2L23,115.6z"/>
<defs>
	<filter id="Adobe_OpacityMaskFilter_1_" filterUnits="userSpaceOnUse">
		<feColorMatrix  type="matrix" values="1 0 0 0 0  0 1 0 0 0  0 0 1 0 0  0 0 0 1 0"/>
	</filter>
</defs>
<mask maskUnits="userSpaceOnUse" id="mask1_1_">
	<rect x="18" y="115" class="st7" width="54" height="37"/>
</mask>
<g class="st8">
</g>
</svg>
